<mxfile host="app.diagrams.net" modified="2023-05-15T20:04:12.919Z" agent="Mozilla/5.0 (Windows NT 10.0; Win64; x64) AppleWebKit/537.36 (KHTML, like Gecko) Chrome/112.0.0.0 Safari/537.36 OPR/98.0.0.0" etag="RBeN20496LYh-jwYmtJ1" version="21.3.0">
  <diagram name="Página-1" id="2NCKRFm3kJzcGgMdM68o">
    <mxGraphModel dx="2461" dy="766" grid="1" gridSize="10" guides="1" tooltips="1" connect="1" arrows="1" fold="1" page="1" pageScale="1" pageWidth="827" pageHeight="1169" math="0" shadow="0">
      <root>
        <mxCell id="0" />
        <mxCell id="1" parent="0" />
        <mxCell id="xBol-2ABwrzWOiANkheO-1" value="P1: Purificación de aire" style="swimlane;whiteSpace=wrap;html=1;" parent="1" vertex="1">
          <mxGeometry x="-22" y="500" width="200" height="110" as="geometry">
            <mxRectangle x="30" y="500" width="170" height="30" as="alternateBounds" />
          </mxGeometry>
        </mxCell>
        <mxCell id="xBol-2ABwrzWOiANkheO-43" style="edgeStyle=orthogonalEdgeStyle;rounded=0;orthogonalLoop=1;jettySize=auto;html=1;" parent="xBol-2ABwrzWOiANkheO-1" source="xBol-2ABwrzWOiANkheO-14" edge="1">
          <mxGeometry relative="1" as="geometry">
            <mxPoint x="292" y="63" as="targetPoint" />
          </mxGeometry>
        </mxCell>
        <mxCell id="xBol-2ABwrzWOiANkheO-46" value="A. Purificado" style="edgeLabel;html=1;align=center;verticalAlign=middle;resizable=0;points=[];" parent="xBol-2ABwrzWOiANkheO-43" vertex="1" connectable="0">
          <mxGeometry x="-0.2429" relative="1" as="geometry">
            <mxPoint as="offset" />
          </mxGeometry>
        </mxCell>
        <mxCell id="xBol-2ABwrzWOiANkheO-14" value="&lt;font style=&quot;font-size: 14px;&quot;&gt;Purificación mediante unidad &lt;br&gt;de mantenimiento&lt;/font&gt;" style="text;html=1;align=center;verticalAlign=middle;resizable=0;points=[];autosize=1;strokeColor=none;fillColor=none;" parent="xBol-2ABwrzWOiANkheO-1" vertex="1">
          <mxGeometry y="38" width="200" height="50" as="geometry" />
        </mxCell>
        <mxCell id="xBol-2ABwrzWOiANkheO-44" value="A. Regulado" style="edgeStyle=orthogonalEdgeStyle;rounded=0;orthogonalLoop=1;jettySize=auto;html=1;entryX=0;entryY=0.5;entryDx=0;entryDy=0;" parent="1" source="xBol-2ABwrzWOiANkheO-4" target="xBol-2ABwrzWOiANkheO-41" edge="1">
          <mxGeometry relative="1" as="geometry" />
        </mxCell>
        <mxCell id="xBol-2ABwrzWOiANkheO-4" value="P2: Secuencia de control" style="swimlane;whiteSpace=wrap;html=1;" parent="1" vertex="1">
          <mxGeometry x="270" y="500" width="200" height="110" as="geometry">
            <mxRectangle x="-30" y="250" width="220" height="30" as="alternateBounds" />
          </mxGeometry>
        </mxCell>
        <mxCell id="xBol-2ABwrzWOiANkheO-32" value="&lt;font style=&quot;font-size: 14px;&quot;&gt;Secuencias de control &lt;br&gt;específicas del sistema&lt;/font&gt;" style="text;html=1;align=center;verticalAlign=middle;resizable=0;points=[];autosize=1;strokeColor=none;fillColor=none;" parent="xBol-2ABwrzWOiANkheO-4" vertex="1">
          <mxGeometry x="15" y="37.5" width="170" height="50" as="geometry" />
        </mxCell>
        <mxCell id="xBol-2ABwrzWOiANkheO-15" value="" style="endArrow=classic;html=1;rounded=0;edgeStyle=orthogonalEdgeStyle;strokeColor=#E81313;" parent="1" target="xBol-2ABwrzWOiANkheO-4" edge="1">
          <mxGeometry width="50" height="50" relative="1" as="geometry">
            <mxPoint x="170" y="410" as="sourcePoint" />
            <mxPoint x="384.5999999999999" y="480.99" as="targetPoint" />
            <Array as="points">
              <mxPoint x="385" y="410" />
            </Array>
          </mxGeometry>
        </mxCell>
        <mxCell id="xBol-2ABwrzWOiANkheO-16" value="Señales Final de carrera" style="edgeLabel;html=1;align=center;verticalAlign=middle;resizable=0;points=[];" parent="xBol-2ABwrzWOiANkheO-15" vertex="1" connectable="0">
          <mxGeometry x="-0.339" y="1" relative="1" as="geometry">
            <mxPoint as="offset" />
          </mxGeometry>
        </mxCell>
        <mxCell id="xBol-2ABwrzWOiANkheO-24" value="" style="endArrow=classic;html=1;rounded=0;edgeStyle=orthogonalEdgeStyle;strokeColor=#0000FF;entryX=0;entryY=0.5;entryDx=0;entryDy=0;" parent="1" target="xBol-2ABwrzWOiANkheO-1" edge="1">
          <mxGeometry width="50" height="50" relative="1" as="geometry">
            <mxPoint x="-150" y="555" as="sourcePoint" />
            <mxPoint x="-52" y="399" as="targetPoint" />
          </mxGeometry>
        </mxCell>
        <mxCell id="xBol-2ABwrzWOiANkheO-25" value="Aire comprimido" style="edgeLabel;html=1;align=center;verticalAlign=middle;resizable=0;points=[];" parent="xBol-2ABwrzWOiANkheO-24" vertex="1" connectable="0">
          <mxGeometry x="-0.7237" y="1" relative="1" as="geometry">
            <mxPoint x="52" y="1" as="offset" />
          </mxGeometry>
        </mxCell>
        <mxCell id="xBol-2ABwrzWOiANkheO-28" value="" style="endArrow=classic;html=1;rounded=0;edgeStyle=orthogonalEdgeStyle;strokeColor=#FFFF00;entryX=0.392;entryY=-0.016;entryDx=0;entryDy=0;entryPerimeter=0;" parent="1" target="xBol-2ABwrzWOiANkheO-4" edge="1">
          <mxGeometry width="50" height="50" relative="1" as="geometry">
            <mxPoint x="110" y="429.99999999999994" as="sourcePoint" />
            <mxPoint x="300" y="429.99999999999994" as="targetPoint" />
          </mxGeometry>
        </mxCell>
        <mxCell id="xBol-2ABwrzWOiANkheO-29" value="Bloque bimanual" style="edgeLabel;html=1;align=center;verticalAlign=middle;resizable=0;points=[];" parent="xBol-2ABwrzWOiANkheO-28" vertex="1" connectable="0">
          <mxGeometry x="-0.7237" y="1" relative="1" as="geometry">
            <mxPoint x="74" y="1" as="offset" />
          </mxGeometry>
        </mxCell>
        <mxCell id="xBol-2ABwrzWOiANkheO-30" value="" style="endArrow=classic;html=1;rounded=0;edgeStyle=orthogonalEdgeStyle;strokeColor=#FFFF00;entryX=0.25;entryY=0;entryDx=0;entryDy=0;" parent="1" target="xBol-2ABwrzWOiANkheO-4" edge="1">
          <mxGeometry width="50" height="50" relative="1" as="geometry">
            <mxPoint x="110" y="460" as="sourcePoint" />
            <mxPoint x="300" y="460" as="targetPoint" />
          </mxGeometry>
        </mxCell>
        <mxCell id="xBol-2ABwrzWOiANkheO-31" value="Señal Emergencia" style="edgeLabel;html=1;align=center;verticalAlign=middle;resizable=0;points=[];" parent="xBol-2ABwrzWOiANkheO-30" vertex="1" connectable="0">
          <mxGeometry x="-0.7237" y="1" relative="1" as="geometry">
            <mxPoint x="74" y="1" as="offset" />
          </mxGeometry>
        </mxCell>
        <mxCell id="xBol-2ABwrzWOiANkheO-47" value="Mov. Mecánico" style="edgeStyle=orthogonalEdgeStyle;rounded=0;orthogonalLoop=1;jettySize=auto;html=1;" parent="1" source="xBol-2ABwrzWOiANkheO-41" edge="1">
          <mxGeometry relative="1" as="geometry">
            <mxPoint x="890" y="555" as="targetPoint" />
          </mxGeometry>
        </mxCell>
        <mxCell id="xBol-2ABwrzWOiANkheO-41" value="P2: Actuación cilindros" style="swimlane;whiteSpace=wrap;html=1;" parent="1" vertex="1">
          <mxGeometry x="550" y="500" width="225" height="110" as="geometry">
            <mxRectangle x="-30" y="250" width="220" height="30" as="alternateBounds" />
          </mxGeometry>
        </mxCell>
        <mxCell id="xBol-2ABwrzWOiANkheO-42" value="&lt;font style=&quot;font-size: 14px;&quot;&gt;Actuación neumática &lt;br&gt;de los cilindros&lt;/font&gt;" style="text;html=1;align=center;verticalAlign=middle;resizable=0;points=[];autosize=1;strokeColor=none;fillColor=none;" parent="xBol-2ABwrzWOiANkheO-41" vertex="1">
          <mxGeometry x="25" y="37.5" width="150" height="50" as="geometry" />
        </mxCell>
      </root>
    </mxGraphModel>
  </diagram>
</mxfile>
